PathFileType	4	(X/Y/Z)	D:\Documents\Paper\paper_current\paper_step_1_data\data_step_3\marker\70DL\subject_01.tsv
DataRate	CameraRate	NumFrames	NumMarkers	Units	OrigDataRate	OrigDataStartFrame	OrigNumFrames
200	200	6	39	mm	200	0	200
Frame#	Time	Top.Head			L.Acromium			R.Acromium			Sternum			L.ASIS			R.ASIS			V.Sacral			L.Ankle.Lat			L.Toe.Tip			R.Heel			R.Ankle.Med			R.Ankle.Lat			L.Toe.Med			L.Toe.Lat			L.Heel			L.Ankle.Med			L.Shank1			L.Shank2			R.Toe.Tip			R.Toe.Med			R.Toe.Lat			L.Thigh2			L.Thigh1			L.Thigh3			R.Thigh3			R.Thigh1			R.Thigh2			R.Shank1			R.Shank2			R.Shank3			L.Shank3			L.Shank4			R.Shank4			L.Thigh4			R.Thigh4			R.Heel.Lat			R.Heel.Med			L.Heel.Lat			L.Heel.Med		
		X1	Y1	Z1	X2	Y2	Z2	X3	Y3	Z3	X4	Y4	Z4	X5	Y5	Z5	X6	Y6	Z6	X7	Y7	Z7	X8	Y8	Z8	X9	Y9	Z9	X10	Y10	Z10	X11	Y11	Z11	X12	Y12	Z12	X13	Y13	Z13	X14	Y14	Z14	X15	Y15	Z15	X16	Y16	Z16	X17	Y17	Z17	X18	Y18	Z18	X19	Y19	Z19	X20	Y20	Z20	X21	Y21	Z21	X22	Y22	Z22	X23	Y23	Z23	X24	Y24	Z24	X25	Y25	Z25	X26	Y26	Z26	X27	Y27	Z27	X28	Y28	Z28	X29	Y29	Z29	X30	Y30	Z30	X31	Y31	Z31	X32	Y32	Z32	X33	Y33	Z33	X34	Y34	Z34	X35	Y35	Z35	X36	Y36	Z36	X37	Y37	Z37	X38	Y38	Z38	X39	Y39	Z39
1	0	-649.999	1712.023	629.566	-736.227	1529.275	360.319	-933.419	1540.725	605.333	-775.585	1432.118	542.213	-797.611	1013.637	418.812	-918.477	1091.825	606.907	-1002.703	1065.415	430.456	-898.666	183.332	395.566	-721.904	142.99	467.536	-890.658	539.063	691.592	-765.073	599.124	699.152	-831.61	601.328	762.824	-783.909	133.684	506.287	-788.605	129.819	403.703	-997.102	121.163	412.817	-919.356	197.683	479.132	-832.179	477.389	383.728	-831.355	395.416	372.435	-654.592	555.562	847.331	-682.073	534.976	780.961	-763.409	544.324	853.396	-789.454	703.67	398.307	-797.521	785.18	384.265	-848.475	778.011	346.036	-819.783	927.013	750.742	-805.318	986.361	768.87	-726.994	965.153	791.639	-674.875	840.004	834.17	-716.183	765.25	820.934	-725.903	872.286	814.487	-888.847	482.306	353.004	-890.455	393.182	346.34	-766.435	801.298	804.466	-844.102	689.167	357.833	-739.91	904.694	775.36	-879.714	543.589	758.805	-812.961	518.631	686.599	-931.288	109.916	377.934	-952.446	116.183	479.14
2	0.005	-649.184	1711.994	630.796	-735.22	1529.107	361.53	-932.457	1540.477	606.59	-773.288	1431.68	543.733	-796.54	1013.551	419.949	-917.706	1091.55	607.932	-1001.697	1065.274	431.349	-899.062	183.995	395.296	-721.903	142.944	467.545	-889.796	536.48	696.28	-764.179	597.05	702.933	-830.515	599.332	766.812	-783.919	133.617	506.323	-788.586	129.782	403.717	-997.095	121.217	412.827	-919.396	197.75	479.329	-831.225	477.888	383.768	-830.725	395.173	373.277	-653.014	554.791	850.988	-680.652	533.699	784.847	-761.783	543.131	857.547	-788.001	703.462	399.293	-796.426	785.049	385.172	-847.321	777.902	346.906	-819.418	926.21	751.776	-804.788	985.572	769.913	-726.502	964.085	792.845	-674.216	838.891	836.145	-715.469	763.938	823.636	-725.381	871.011	816.391	-887.8	481.925	354.45	-889.573	393.242	346.855	-765.767	799.789	807.025	-843.682	689.436	357.989	-739.639	903.56	776.6	-878.45	541.383	763.453	-811.74	516.23	691.095	-931.274	109.917	377.934	-952.535	116.261	479.333
3	0.01	-648.283	1711.867	632.141	-734.243	1528.952	362.744	-931.47	1540.207	607.889	-772.311	1431.558	545	-795.499	1013.399	421.071	-916.917	1091.283	609.026	-1000.667	1065.181	432.267	-899.436	184.629	395.045	-721.88	142.868	467.579	-888.959	533.912	700.913	-763.36	594.939	706.679	-829.427	597.273	770.743	-783.869	133.604	506.335	-788.592	129.8	403.733	-997.035	121.253	412.801	-919.43	197.813	479.523	-830.164	477.117	385.273	-829.94	394.965	373.965	-651.525	553.833	854.591	-679.352	532.236	788.606	-760.205	541.775	861.575	-783.409	705.371	398.392	-795.342	784.865	386.056	-844.764	775.961	348.804	-819.046	925.305	752.842	-804.292	984.579	770.978	-726.096	962.923	794.058	-673.638	837.708	838.215	-714.726	762.631	826.233	-724.855	869.592	818.37	-886.751	481.564	355.875	-889.834	394.787	346.3	-765.168	798.287	809.532	-842.564	689.295	358.824	-739.398	902.529	777.942	-877.262	539.173	767.884	-810.663	513.887	695.373	-931.298	109.955	377.929	-952.633	116.341	479.535
4	0.015	-647.393	1711.659	633.645	-733.917	1529.206	363.363	-930.777	1539.812	609.227	-771.254	1431.274	546.318	-794.462	1013.178	422.261	-913.309	1092.586	613.654	-1000.951	1065.828	432.466	-899.765	185.212	394.827	-721.853	142.787	467.6	-888.163	531.37	705.435	-762.76	592.898	709.661	-828.409	595.206	773.85	-783.89	133.591	506.361	-788.589	129.79	403.748	-996.889	121.512	412.722	-919.45	197.87	479.711	-829.199	476.965	385.965	-829.165	394.823	374.575	-650.149	552.594	858.037	-678.113	530.712	792.307	-758.779	540.381	865.507	-787.416	702.319	400.089	-793.471	783.83	388.406	-844.251	776.9	349.526	-818.658	924.344	753.925	-801.643	984.842	770.229	-725.308	961.953	794.383	-673.142	836.675	840.225	-713.378	761.271	828.596	-724.367	868.09	820.296	-885.7	481.259	357.231	-887.948	393.418	347.946	-764.629	796.652	812.036	-841.226	689.566	360.197	-739.226	901.142	779.141	-876.121	537.08	772.192	-809.639	511.513	699.631	-931.283	110.006	377.907	-952.743	116.422	479.748
5	0.02	-646.411	1711.449	635.012	-732.905	1528.985	364.72	-929.776	1539.581	610.602	-770.68	1431.065	547.015	-793.741	1013.289	422.831	-913.164	1092.031	613.97	-1000.357	1065.502	433.42	-900.032	185.722	394.657	-721.79	142.688	467.567	-887.413	528.858	709.802	-761.992	590.744	713.205	-827.441	593.06	777.609	-783.728	133.332	506.326	-789.478	130.066	402.6	-997.27	122.209	412.28	-919.452	197.92	479.892	-828.433	477.123	386.194	-828.67	395.11	374.523	-648.81	551.057	861.646	-676.753	528.795	796.152	-757.32	538.632	869.257	-787.155	702.827	399.948	-792.711	784.201	388.329	-843.513	776.911	350.439	-818.333	923.314	755.011	-801.139	983.904	771.813	-724.92	960.521	795.586	-672.616	835.29	842.251	-712.814	759.782	831.451	-723.813	866.462	822.295	-884.643	481.047	358.461	-887.584	394.174	348.061	-764.058	794.936	814.426	-840.442	689.65	361.048	-738.925	899.862	780.45	-874.994	534.848	776.358	-808.721	508.824	703.881	-931.611	110.392	377.602	-952.86	116.505	479.958
6	0.025	-645.473	1711.286	636.368	-731.826	1528.797	366.057	-928.789	1539.385	611.973	-769.68	1430.812	548.223	-792.801	1013.196	423.921	-912.392	1091.715	614.929	-999.568	1065.117	434.828	-900.225	186.146	394.545	-721.867	142.729	467.618	-886.707	526.376	713.987	-761.369	588.421	716.754	-826.601	590.894	781.277	-783.827	133.401	506.456	-789.556	130.132	402.636	-997.585	121.985	412.325	-919.432	197.962	480.065	-827.376	477.085	386.898	-827.92	395.032	375.021	-647.737	549.605	864.902	-675.85	527.189	799.414	-756.152	536.914	872.944	-786.011	702.621	401.104	-791.785	784.072	389.497	-842.568	776.95	351.221	-818.016	922.215	756.092	-800.607	982.606	772.617	-724.537	959.025	796.841	-672.047	833.867	844.164	-712.186	758.093	833.747	-723.384	864.833	824.239	-883.572	480.944	359.538	-886.86	394.268	348.596	-763.543	793.2	816.923	-839.446	689.741	361.714	-738.784	898.392	781.623	-874.081	532.613	780.344	-807.993	506.591	707.755	-931.669	110.449	377.558	-952.972	116.586	480.145
